Release Date: 2/7/2007

Genre: Drama | Horror | Thriller | Crime | Foreign[/b]

storyline


This terrifying prequel attempts to trace the murderous 
roots of the cannibalistic killer. The film follows Lecter 
from his hard-scrabble Lithuanian childhood, where he 
witnesses the repulsive lengths to which hungry soldiers 
will go to satiate themselves, through his sojourn in France, 
where as a med student he hones his appetite for the kill.


cast

Aaran Thomas ... Hannibal (8 Years)
Gaspard Ulliel ... Hannibal Lecter
Helena-Lia Tachovská ... Mischa
Richard Leaf ... Father Lecter
Michele Wade ... Nanny
Gong Li ... Lady Murasaki
Dominic West ... Inspector Popil
Rhys Ifans ... Vladis Grutas
Richard Brake ... Enrikas Dortlich
Martin Hub ... Lothar
Ingeborga Dapkunaite ... Mother Lecter
Kevin McKidd ... Petras Kolnas
Joerg Stadler ... Berndt
Stephen Walters ... Zigmas Milko
Ivan Marevich ... Bronys Grentz



Rip Information

General
Format                                   : Matroska
Format version                           : Version 4 / Version 2
File size                                : 300 MiB
Duration                                 : 2h 1mn
Overall bit rate                         : 347 Kbps
Movie name                               : Hannibal Rising 2007 {DvDRip} {x264} {Eng} {rdx004} {DMRG}
Encoded date                             : UTC 2013-03-01 10:51:43


Video


ID                                       : 1
Format                                   : AVC
Format/Info                              : Advanced Video Codec
Format profile                           : High@L2.1
Format settings, CABAC                   : Yes
Format settings, ReFrames                : 6 frames
Codec ID                                 : V_MPEG4/ISO/AVC
Duration                                 : 2h 1mn
Bit rate                                 : 299 Kbps
Width                                    : 580 pixels
Height                                   : 232 pixels
Display aspect ratio                     : 16:9
Original display aspect ratio            : 2.500
Frame rate mode                          : Constant
Frame rate                               : 23.976 fps
Color space                              : YUV
Chroma subsampling                       : 4:2:0
Bit depth                                : 8 bits
Scan type                                : Progressive
Bits/(Pixel*Frame)                       : 0.093
Stream size                              : 253 MiB (84%)
Writing library                          : x264 core 112
Language                                 : English
Default                                  : Yes
Forced                                   : No
Color primaries                          : BT.601 NTSC
Transfer characteristics                 : BT.709
Matrix coefficients                      : BT.601




Audio

ID                                       : 2
Format                                   : MPEG Audio
Format version                           : Version 2
Format profile                           : Layer 3
Codec ID                                 : A_MPEG/L3
Codec ID/Hint                            : MP3
Duration                                 : 2h 1mn
Bit rate mode                            : Constant
Bit rate                                 : 48.0 Kbps
Channel(s)                               : 2 channels
Sampling rate                            : 16.0 KHz
Compression mode                         : Lossy
Stream size                              : 41.5 MiB (14%)
Title                                    : rdx004
Language                                 : English
Default                                  : Yes
Forced                                   : No



